<svg xmlns="http://www.w3.org/2000/svg" xmlns:xlink="http://www.w3.org/1999/xlink" width="141" height="57" viewBox="0 0 141 57"><defs><style>.a{clip-path:url(#b);}.b{fill:#3c1e5f;}.c{fill:#ff6964;}.d{fill:#fff;}</style><clipPath id="b"><rect width="141" height="57"/></clipPath></defs><g id="a" class="a"><rect class="d" width="141" height="57"/><g transform="translate(0 29.284)"><path class="b" d="M190.3,181.745l-.341,2.069a8.317,8.317,0,0,0-5.753-2.344c-4.809,0-8.707,4.207-8.707,9.4s3.9,9.4,8.707,9.4a8.306,8.306,0,0,0,5.677-2.275l.416,2.046h4.329V181.745ZM185.085,195.2a4.329,4.329,0,1,1,4.329-4.329A4.33,4.33,0,0,1,185.085,195.2Z" transform="translate(-138.6 -172.599)"/><path class="b" d="M293.551,139.28v10.776a8.262,8.262,0,0,0-5.254-1.9c-4.809,0-8.707,4.207-8.707,9.4s3.9,9.4,8.707,9.4a8.313,8.313,0,0,0,5.748-2.34l.389,2.111h4.329V139.28Zm-4.373,22.6a4.329,4.329,0,1,1,4.329-4.329A4.33,4.33,0,0,1,289.178,161.878Z" transform="translate(-220.805 -139.28)"/><path class="b" d="M85.823,181.18a9.455,9.455,0,1,0,.292,18.906c5.58,0,7.819-2.756,7.819-2.756L90.8,194.195c-2.05,1.831-7.607,2.538-9.253-1.817H94.778C95.495,188.461,94.031,181.18,85.823,181.18Zm-4.247,7.372s.568-2.927,4.39-2.927S90,188.552,90,188.552Z" transform="translate(-60.313 -172.37)"/><path class="b" d="M5.3,172.873V153.78H0v21.257l3.135,3.135H14.474v-5.3Z" transform="translate(0 -150.731)"/><path class="b" d="M399.007,189.876a10.549,10.549,0,0,0-4.9-2.111c-2.626-.538-2.841-1-2.841-1.5,0-.82,1.495-.936,2.138-.948a7.9,7.9,0,0,1,4.226,1.112l.307.16,2.342-4.258-.318-.17a12.694,12.694,0,0,0-6.566-1.59c-4.4,0-7.361,2.288-7.361,5.694,0,3.251,2.035,5.08,6.6,5.929,2.441.435,2.769,1,2.769,1.5,0,.791-.891,1.192-2.647,1.192a10.611,10.611,0,0,1-4.916-1.409l-.315-.183-2.273,4.155.273.181a13.5,13.5,0,0,0,7.231,1.968,9.592,9.592,0,0,0,5.7-1.558,5.2,5.2,0,0,0,2.176-4.346A4.813,4.813,0,0,0,399.007,189.876Z" transform="translate(-304.249 -171.889)"/></g><path class="c" d="M493.39,184.6a1.83,1.83,0,1,1,1.819,1.8A1.821,1.821,0,0,1,493.39,184.6Z" transform="translate(-389.653 -144.35)"/><rect class="c" width="3.114" height="12.195" transform="translate(104.009 44.53)"/><path class="c" d="M465.52,255.689a1.829,1.829,0,1,1,1.819,1.8A1.821,1.821,0,0,1,465.52,255.689Z" transform="translate(-367.642 -200.493)"/><path class="c" d="M518.75,217.052a6.406,6.406,0,1,1,6.4,6.312A6.273,6.273,0,0,1,518.75,217.052Zm9.634,0a3.24,3.24,0,1,0-3.24,3.261A3.17,3.17,0,0,0,528.384,217.052Z" transform="translate(-409.68 -166.431)"/><g transform="translate(109.07)"><path class="c" d="M531.559,0,518.75,7.687l6.4,3.843,6.4-3.843,12.811,7.685,6.406-3.841Z" transform="translate(-518.75)"/><path class="c" d="M549.21,99.077l6.4,3.843,12.811-7.687-6.4-3.843Z" transform="translate(-542.806 -72.175)"/><g transform="translate(0 7.687)"><path class="b" d="M525.154,40.4l-6.4-3.843V59.619L531.559,67.3V59.619l-6.4-3.843Z" transform="translate(-518.75 -36.56)"/><path class="b" d="M579.67,36.56v7.685l12.811,7.687V44.245Z" transform="translate(-566.861 -36.56)"/></g></g></g></svg>